<?xml version="1.0" encoding="utf-8"?>
<!-- Generator: Adobe Illustrator 25.4.1, SVG Export Plug-In . SVG Version: 6.00 Build 0)  -->
<svg version="1.1" id="Capa_1" xmlns:mydata="http://www.w3.org/2000/svg"
	 xmlns="http://www.w3.org/2000/svg" xmlns:xlink="http://www.w3.org/1999/xlink" x="0px" y="0px" viewBox="0 0 550 400"
	 style="enable-background:new 0 0 550 400;" xml:space="preserve">
<style type="text/css">
	.st0{fill:#FF3366;}
	.st1{fill-rule:evenodd;clip-rule:evenodd;fill:#2F6BB3;}
	.st2{fill-rule:evenodd;clip-rule:evenodd;fill:#E72366;}
	.st3{fill-rule:evenodd;clip-rule:evenodd;}
</style>
<g>
	<g>
		<g>
			<path class="st0" d="M112.1,295.7H80.3V286h31.8V295.7z M114.7,273.1H76.2v46h-9.7v-55.7h48.1L114.7,273.1z"/>
			<path class="st0" d="M134.5,319.1h-9.7v-55.7h9.7V319.1z"/>
			<path class="st0" d="M218.1,263.4l-31.8,51.2c-2.2,3.6-4.2,5.5-6,5.5c-1.7,0-3.7-1.8-6-5.5l-31.2-51.2h12.5l24.9,41.4l25.1-41.4
				H218.1z"/>
			<path class="st0" d="M270,319.1l-12.5-0.1l-9.4-15.6h-26.4l5.9-9.6h14.8l-9.7-16.1L207.5,319H195l30.3-50.3
				c0.8-1.3,1.8-2.5,3.2-3.6c1.6-1.3,3.1-1.9,4.4-1.9c1.4,0,2.9,0.6,4.4,1.8c1.3,1,2.4,2.3,3.2,3.7L270,319.1z"/>
			<path class="st0" d="M336.3,290.6c0,8.2-2.6,15-7.9,20.4c-5.3,5.4-12,8.1-20.2,8.1h-31.4v-55.7h31.4c8.2,0,14.9,2.5,20.2,7.5
				S336.3,282.5,336.3,290.6L336.3,290.6z M326.6,291.4c0-5.4-1.7-9.8-5.2-13.2c-3.5-3.4-7.8-5.1-13.2-5.1h-21.8v36.3h21.8
				c5.3,0,9.7-1.7,13.2-5S326.6,296.8,326.6,291.4z"/>
			<path class="st0" d="M414.6,290.6c0,8.2-2.6,15-7.9,20.4c-5.3,5.4-12,8.1-20.2,8.1H371c-8.1,0-14.8-2.7-20.1-8.1s-8-12.2-8-20.4
				c0-8.2,2.6-14.7,7.9-19.7s12-7.5,20.2-7.5h15.6c8.3,0,15,2.5,20.2,7.5S414.6,282.5,414.6,290.6z M405,291.4
				c0-5.4-1.7-9.8-5.2-13.2c-3.5-3.4-7.9-5.1-13.3-5.1H371c-5.3,0-9.7,1.7-13.2,5.1s-5.2,7.8-5.2,13.2c0,5.3,1.7,9.7,5.2,13
				c3.5,3.3,7.8,5,13.2,5h15.6c5.4,0,9.8-1.7,13.3-5C403.3,301.1,405,296.8,405,291.4z"/>
			<path class="st0" d="M483.5,263.4l-27.7,37.3v18.4h-9.6v-18.6l-28.4-37.1h12.5l21,27.4l19.7-27.4H483.5z"/>
		</g>
		<g>
			<g>
				<path class="st1" d="M274.3,80c-41.9,0-75.9,34-75.9,75.9s34,75.9,75.9,75.9c17.7,0,34-6,46.9-16.2c-9.8,5.5-21.2,8.6-33.2,8.6
					c-37.8,0-68.4-30.6-68.4-68.4c0-37.8,30.6-68.4,68.4-68.4c12.1,0,23.4,3.1,33.2,8.6C308.3,86,292,80,274.3,80z"/>
				<path class="st2" d="M290.8,216.7c33.6,0,60.8-27.2,60.8-60.8c0-33.6-27.2-60.8-60.8-60.8c-14.2,0-27.2,4.8-37.5,12.9
					c7.9-4.4,16.9-6.9,26.6-6.9c30.2,0,54.7,24.5,54.7,54.7s-24.5,54.7-54.7,54.7c-9.6,0-18.7-2.5-26.6-6.9
					C263.7,211.9,276.7,216.7,290.8,216.7L290.8,216.7z"/>
				<path class="st3" d="M304.8,133.5h-47.6v57h-12v-69h59.6V133.5z"/>
				<path class="st3" d="M262.3,161.5h39.4v-12h-39.4V161.5z"/>
			</g>
		</g>
	</g>
</g>
</svg>
