<svg xmlns:mydata="http://www.w3.org/2000/svg" mydata:contrastcolor="47141e" mydata:template="Contrast"
    mydata:presentation="2.5" mydata:layouttype="undefined" mydata:specialfontid="undefined" mydata:id1="441"
    mydata:id2="505" mydata:companyname="LIFERLI" mydata:companytagline="" version="1.1"
    xmlns="http://www.w3.org/2000/svg" xmlns:xlink="http://www.w3.org/1999/xlink" viewBox="0 35 550 400">
    <defs>
        <linearGradient x1="121.03167" y1="235" x2="428.96833" y2="235" gradientUnits="userSpaceOnUse"
            id="color-14286419145">
            <stop offset="0" stop-color="#ed4264"></stop>
            <stop offset="1" stop-color="#ffedbc"></stop>
        </linearGradient>
    </defs>
    <g fill="url(#color-14286419145)" fill-rule="none" stroke="none" stroke-width="1" stroke-linecap="butt"
        stroke-linejoin="miter" stroke-miterlimit="10" stroke-dasharray="" stroke-dashoffset="0" font-family="none"
        font-weight="none" font-size="none" text-anchor="none" style="mix-blend-mode: normal">
        <g
            data-paper-data="{&quot;isGlobalGroup&quot;:true,&quot;bounds&quot;:{&quot;x&quot;:121.03167493948335,&quot;y&quot;:106.00000000000003,&quot;width&quot;:307.9366501210333,&quot;height&quot;:258}}">
            <g data-paper-data="{&quot;isIcon&quot;:&quot;true&quot;,&quot;iconType&quot;:&quot;icon&quot;,&quot;rawIconId&quot;:&quot;337331&quot;,&quot;selectedEffects&quot;:{&quot;container&quot;:&quot;circle_simple_filledplus&quot;,&quot;transformation&quot;:&quot;&quot;,&quot;pattern&quot;:&quot;&quot;},&quot;combineTerms&quot;:&quot;avion&quot;,&quot;isDetailed&quot;:false,&quot;fillRule&quot;:&quot;nonzero&quot;,&quot;blockLetter&quot;:&quot;O&quot;,&quot;blockLetterId&quot;:0,&quot;relativeBoundsIconToContainer&quot;:{&quot;top&quot;:0.028658677653618226,&quot;left&quot;:-0.029134500150747696},&quot;widthRatioIconToContainer&quot;:0.6284371883000138,&quot;heightRatioIconToContainer&quot;:0.6284450944749075,&quot;bounds&quot;:{&quot;x&quot;:189.6816777503671,&quot;y&quot;:149.68077124036034,&quot;width&quot;:170.6371777404463,&quot;height&quot;:131.63058539134119},&quot;iconStyle&quot;:&quot;standalone&quot;,&quot;suitableAsStandaloneIcon&quot;:false}"
                fill-rule="evenodd">
                <path
                    d="M360.2826,237.53268l0.02026,-0.85223l0.01173,-0.85212l0.00427,-0.81949v-0.01909l-0.00427,-0.85223l-0.01173,-0.85223l-0.02133,-0.85233l-0.0288,-0.85223l-0.03626,-0.8518l-0.04586,-0.85169l-0.05439,-0.85137l-0.06186,-0.85084l-0.07039,-0.84999l-0.07892,-0.84956l-0.08745,-0.84871l-0.09598,-0.84785l-0.10452,-0.84689l-0.11411,-0.84593l-0.12158,-0.84476l-0.13011,-0.84348l-0.13864,-0.84209l-0.14717,-0.84081l-0.15677,-0.83921l-0.16424,-0.83762l-0.17277,-0.83591l-0.1813,-0.83399l-0.1909,-0.83218l-0.19837,-0.83015l-0.2069,-0.82812l-0.21543,-0.82588l-0.22396,-0.82364l-0.23249,-0.8214l-0.24103,-0.81874l-0.24849,-0.81639l-0.25702,-0.81362l-0.26555,-0.81106l-0.27302,-0.80829l-0.28155,-0.8053l-0.29008,-0.80253l-0.29648,-0.79944l-0.30608,-0.79645l-0.31248,-0.79325l-0.32101,-0.78994l-0.32314,-0.77416l-0.33594,-0.78365l-0.34447,-0.78045l-0.35087,-0.77704l-0.3594,-0.77373l-0.36687,-0.77021l-0.37327,-0.76648l-0.3818,-0.76296l-0.39033,-0.75902l-0.39673,-0.75528l-0.40526,-0.75112l-0.41273,-0.74718l-0.41913,-0.74302l-0.42766,-0.73865l-0.43512,-0.73438l-0.44259,-0.73001l-0.44899,-0.72542l-0.45752,-0.72073l-0.46392,-0.71614l-0.47139,-0.71145l-0.47992,-0.70654l-0.48525,-0.70153l-0.49378,-0.69663l-0.50018,-0.69161l-0.50658,-0.68639l-0.51404,-0.68116l-0.52151,-0.67594l-0.52684,-0.67071l-0.53431,-0.66517l-0.54071,-0.65983l-0.54817,-0.65429l-0.5535,-0.64874l-0.5599,-0.6432l-0.56737,-0.63754l-0.5727,-0.63189l-0.57803,-0.62613l-0.5855,-0.62037l-0.58976,-0.61461l-0.59403,-0.60598l-0.34767,-0.34927l-0.60576,-0.59968l-0.61109,-0.59414l-0.61749,-0.58806l-0.62283,-0.58219l-0.62922,-0.57611l-0.63456,-0.57003l-0.63989,-0.56374l-0.64629,-0.55745l-0.65055,-0.55094l-0.65695,-0.54465l-0.66229,-0.53793l-0.66762,-0.53132l-0.67295,-0.5246l-0.67935,-0.51778l-0.68255,-0.51106l-0.68895,-0.50391l-0.69428,-0.49709l-0.69855,-0.48994l-0.70388,-0.4828l-0.70814,-0.47576l-0.71454,-0.4684l-0.71774,-0.46104l-0.72308,-0.45379l-0.72734,-0.44643l-0.73161,-0.43896l-0.73694,-0.4315l-0.74014,-0.42393l-0.74547,-0.41654l-0.74867,-0.40892l-0.75294,-0.40131l-0.7572,-0.39378l-0.7604,-0.38611l-0.76467,-0.37844l-0.76787,-0.37083l-0.77213,-0.36321l-0.77427,-0.3555l-0.7796,-0.34788l-0.77747,-0.33858l-0.45326,-0.19326l-0.78706,-0.32826l-0.79026,-0.3206l-0.79346,-0.31284l-0.79666,-0.30504l-0.79986,-0.29714l-0.80199,-0.28921l-0.80626,-0.28118l-0.80839,-0.2731l-0.81159,-0.26498l-0.81373,-0.25682l-0.81586,-0.24855l-0.81906,-0.2403l-0.82119,-0.23195l-0.82439,-0.22361l-0.82588,-0.21521l-0.82802,-0.20672l-0.83036,-0.19832l-0.83218,-0.18979l-0.83442,-0.18131l-0.8358,-0.17273l-0.83762,-0.1642l-0.83911,-0.15566l-0.84081,-0.14709l-0.8422,-0.13851l-0.84359,-0.12993l-0.84487,-0.12136l-0.84593,-0.11283l-0.84679,-0.10425l-0.84764,-0.09572l-0.84903,-0.08723l-0.84956,-0.07875l-0.84988,-0.07026l-0.85052,-0.06182l-0.85127,-0.05343l-0.8518,-0.04503l-0.8518,-0.03673l-0.8518,-0.02842l-0.85223,-0.02017l-0.85223,-0.012l-0.83858,-0.00383l-0.85223,0.00416l-0.85223,0.01227l-0.85223,0.02053l-0.85223,0.02874l-0.8518,0.03705l-0.8518,0.0454l-0.85137,0.05374l-0.85084,0.06219l-0.84999,0.07058l-0.84945,0.07906l-0.84871,0.0876l-0.84796,0.09603l-0.84689,0.10466l-0.84593,0.11315l-0.84465,0.12172l-0.84359,0.1303l-0.84209,0.13882l-0.84081,0.14746l-0.83921,0.15598l-0.83751,0.16457l-0.83591,0.17309l-0.8341,0.18162l-0.83218,0.19016l-0.83015,0.19859l-0.82812,0.20713l-0.82588,0.21553l-0.82364,0.22392l-0.8213,0.23227l-0.81885,0.24062l-0.81629,0.24887l-0.81373,0.25713l-0.81095,0.2653l-0.80829,0.27342l-0.80541,0.28144l-0.80242,0.28953l-0.79954,0.29742l-0.79634,0.30531l-0.79336,0.31311l-0.78994,0.32083l-0.77395,0.3231l-0.78365,0.33606l-0.78045,0.34368l-0.77715,0.35134l-0.77363,0.35901l-0.77021,0.36668l-0.76648,0.37429l-0.76296,0.38195l-0.75912,0.38958l-0.75507,0.39719l-0.75123,0.40477l-0.74718,0.4123l-0.74291,0.41998l-0.73875,0.42734l-0.73438,0.43491l-0.73001,0.44227l-0.72542,0.44984l-0.72073,0.45709l-0.71614,0.46435l-0.71134,0.47171l-0.70665,0.47885l-0.70153,0.4861l-0.69663,0.49314l-0.69151,0.50018l-0.68649,0.50711l-0.68116,0.51404l-0.67594,0.52087l-0.6706,0.52759l-0.66527,0.53431l-0.65983,0.54092l-0.65429,0.54743l-0.64874,0.55382l-0.6432,0.56022l-0.63754,0.56652l-0.63189,0.5727l-0.62613,0.57878l-0.62037,0.58486l-0.61461,0.59072l-0.60598,0.5936l-0.34927,0.34746l-0.59979,0.60566l-0.59403,0.61152l-0.58806,0.61728l-0.58219,0.62315l-0.57611,0.6288l-0.56993,0.63445l-0.56385,0.6401l-0.55745,0.64576l-0.55094,0.6513l-0.54455,0.65685l-0.53804,0.66229l-0.53132,0.66772l-0.5246,0.67306l-0.51778,0.67839l-0.51095,0.68362l-0.50413,0.68873l-0.49698,0.69385l-0.48994,0.69887l-0.4828,0.70388l-0.47565,0.70868l-0.4684,0.71358l-0.46115,0.71817l-0.45379,0.72297l-0.44643,0.72745l-0.43896,0.73193l-0.4315,0.7363l-0.42403,0.74067l-0.41645,0.74472l-0.40892,0.74899l-0.40135,0.75294l-0.39372,0.75688l-0.38611,0.76083l-0.37849,0.76445l-0.37083,0.76808l-0.36316,0.77171l-0.35554,0.77523l-0.34788,0.77853l-0.33857,0.77789l-0.19321,0.45347l-0.32826,0.78696l-0.3206,0.79026l-0.31284,0.79357l-0.30504,0.79656l-0.29714,0.79965l-0.28921,0.80263l-0.28118,0.80562l-0.2731,0.80839l-0.26498,0.81127l-0.25682,0.81383l-0.24855,0.81639l-0.2403,0.81906l-0.23195,0.8214l-0.22361,0.82375l-0.21521,0.82599l-0.20676,0.82823l-0.19828,0.83026l-0.18979,0.83218l-0.18131,0.8342l-0.17273,0.83591l-0.1642,0.83762l-0.15566,0.83932l-0.14709,0.84071l-0.13851,0.8422l-0.12993,0.84348l-0.12136,0.84476l-0.11283,0.84593l-0.10425,0.84689l-0.09572,0.84785l-0.08723,0.84871l-0.07875,0.84956l-0.07026,0.84999l-0.06182,0.85095l-0.05343,0.85084l-0.04503,0.8518l-0.03673,0.8518l-0.02842,0.8518l-0.02017,0.85223l-0.012,0.85223l-0.00383,0.83858l0.00416,0.85223l0.01227,0.85223l0.02053,0.85223l0.02874,0.85223l0.03705,0.8518l0.0454,0.8518l0.05374,0.85127l0.06214,0.85095l0.07063,0.84999l0.07906,0.84945l0.08755,0.8486l0.09609,0.84817l0.10462,0.84679l0.11315,0.84583l0.12172,0.84487l0.1303,0.84359l0.13887,0.84177l0.14741,0.84081l0.15598,0.83953l0.16457,0.83762l0.17309,0.8358l0.18162,0.83399l0.19016,0.83218l0.19864,0.83036l0.20709,0.82802l0.21553,0.82556l0.22392,0.82332l0.23227,0.82119l0.24062,0.81906l0.24887,0.81693l0.25713,0.81373l0.26526,0.81053l0.27342,0.80839l0.28149,0.80519l0.28948,0.80306l0.29742,0.79986l0.30531,0.7956l0.31311,0.79346l0.32083,0.7892l0.3232,0.77533l0.33606,0.7828l0.34367,0.78067l0.35135,0.77747l0.35901,0.7732l0.36667,0.77107l0.37434,0.76573l0.38192,0.76253l0.38958,0.75934l0.39719,0.75507l0.4048,0.75187l0.41237,0.74654l0.41987,0.74334l0.42745,0.73907l0.4348,0.73374l0.44238,0.73054l0.44974,0.72521l0.45709,0.72094l0.17597,0.27089c1.48653,-0.17846 2.973,-0.35158 4.45939,-0.51938l-0.38564,-0.5695l-0.44899,-0.67722l-0.44206,-0.68255l-0.43512,-0.68681l-0.42809,-0.69001l-0.42115,-0.69535l-0.4139,-0.70068l-0.40697,-0.70281l-0.39972,-0.70814l-0.39268,-0.71241l-0.38553,-0.71561l-0.37828,-0.71881l-0.37103,-0.72414l-0.36388,-0.72734l-0.35674,-0.73054l-0.34938,-0.73481l-0.34223,-0.73801l-0.33498,-0.74121l-0.32773,-0.7444l-0.32054,-0.7476l-0.30819,-0.73907l-0.30604,-0.754l-0.29851,-0.75614l-0.29099,-0.7604l-0.28342,-0.76253l-0.27575,-0.76467l-0.26812,-0.76787l-0.26038,-0.77l-0.25256,-0.7732l-0.24472,-0.77533l-0.23693,-0.77747l-0.22893,-0.7796l-0.22105,-0.7828l-0.21301,-0.78397l-0.20503,-0.78653l-0.197,-0.78845l-0.18893,-0.79058l-0.18085,-0.79208l-0.17273,-0.79421l-0.16456,-0.79613l-0.1565,-0.79752l-0.14832,-0.7989l-0.1402,-0.80071l-0.13203,-0.80199l-0.12387,-0.80349l-0.11575,-0.80434l-0.10758,-0.80573l-0.09945,-0.80701l-0.09133,-0.80797l-0.08327,-0.8085l-0.07519,-0.80978l-0.06707,-0.81074l-0.05908,-0.81117l-0.0511,-0.81159l-0.04306,-0.81213l-0.03518,-0.81309l-0.02723,-0.81341l-0.0194,-0.81351l-0.01158,-0.81383l-0.00379,-0.81394l0.00383,-0.80071l0.01164,-0.81394l0.01943,-0.81394l0.02733,-0.81341l0.03522,-0.81298l0.04316,-0.81213l0.05115,-0.81213l0.05917,-0.81117l0.06716,-0.81074l0.07528,-0.80957l0.0833,-0.80893l0.09143,-0.80797l0.09955,-0.8069l0.10767,-0.80583l0.1158,-0.80455l0.12396,-0.80338l0.13213,-0.80199l0.14024,-0.80061l0.14841,-0.79912l0.15654,-0.79752l0.1647,-0.79592l0.17278,-0.7941l0.18094,-0.7924l0.18897,-0.79037l0.19704,-0.78856l0.20513,-0.78642l0.2131,-0.78429l0.22109,-0.78216l0.22904,-0.77992l0.23692,-0.77757l0.24481,-0.77512l0.25262,-0.77277l0.26042,-0.77021l0.26812,-0.76765l0.27583,-0.76488l0.28342,-0.76232l0.29103,-0.75944l0.29851,-0.75667l0.306,-0.75379l0.31339,-0.7508l0.18131,-0.42521l0.32649,-0.74984l0.3321,-0.7428l0.33935,-0.73939l0.3465,-0.73587l0.35375,-0.73246l0.361,-0.72873l0.36826,-0.7251l0.3754,-0.72126l0.38265,-0.71742l0.3898,-0.71348l0.39694,-0.70953l0.40409,-0.70537l0.41124,-0.70132l0.41827,-0.69695l0.42521,-0.69268l0.43235,-0.68831l0.43928,-0.68394l0.44622,-0.67935l0.45315,-0.67476l0.45997,-0.67018l0.46669,-0.66538l0.47352,-0.66069l0.48013,-0.65589l0.48685,-0.65098l0.49346,-0.64608l0.49997,-0.64106l0.50637,-0.63605l0.51276,-0.63093l0.51916,-0.62592l0.52535,-0.62069l0.53164,-0.61547l0.53761,-0.61024l0.54369,-0.60502l0.54977,-0.59968l0.55564,-0.59435l0.5614,-0.58902l0.56716,-0.58369l0.57281,-0.57814l0.32794,-0.32613l0.58443,-0.57238l0.58689,-0.56385l0.59232,-0.55798l0.59766,-0.55222l0.60288,-0.54615l0.60821,-0.54028l0.61344,-0.53399l0.61867,-0.52802l0.62389,-0.52162l0.6289,-0.51543l0.63413,-0.50903l0.63914,-0.50253l0.64405,-0.49613l0.64906,-0.48952l0.65386,-0.4829l0.65887,-0.47618l0.66357,-0.46947l0.66815,-0.46275l0.67295,-0.45581l0.67754,-0.44899l0.68212,-0.44206l0.68649,-0.43512l0.69097,-0.42819l0.69524,-0.42105l0.69951,-0.41401l0.70367,-0.40686l0.70782,-0.39982l0.71188,-0.39268l0.71582,-0.38543l0.71966,-0.37828l0.7235,-0.37114l0.72723,-0.36388l0.73086,-0.35663l0.73449,-0.34949l0.7379,-0.34223l0.74131,-0.33488l0.74472,-0.32784l0.74782,-0.32048l0.73854,-0.30809l0.754,-0.30604l0.75678,-0.29852l0.75966,-0.29099l0.76232,-0.28341l0.76499,-0.27579l0.76776,-0.26808l0.77032,-0.26037l0.77277,-0.25258l0.77523,-0.24477l0.77768,-0.23688l0.77992,-0.22898l0.78226,-0.22105l0.78429,-0.21301l0.78653,-0.20503l0.78856,-0.197l0.79048,-0.18893l0.79229,-0.18085l0.79421,-0.17273l0.79581,-0.1646l0.79752,-0.15644l0.79912,-0.14837l0.80061,-0.14016l0.80199,-0.13203l0.80338,-0.12391l0.80455,-0.1157l0.80573,-0.10763l0.8069,-0.09945l0.80786,-0.09133l0.80882,-0.08327l0.80967,-0.07513l0.81074,-0.06711l0.81117,-0.05908l0.81159,-0.0511l0.81213,-0.04308l0.81298,-0.03517l0.81351,-0.02724l0.81341,-0.01939l0.81394,-0.01158l0.81394,-0.0038l0.80071,0.00384l0.81437,0.01164l0.81341,0.01943l0.81351,0.02733l0.81298,0.03522l0.81213,0.04316l0.81213,0.05119l0.81117,0.05913l0.81074,0.06721l0.80978,0.07523l0.80893,0.0833l0.80797,0.09143l0.80658,0.09956l0.80573,0.10767l0.80477,0.11579l0.80349,0.12396l0.80199,0.13213l0.80071,0.14025l0.7989,0.14841l0.79741,0.15653l0.79613,0.1647l0.79389,0.17278l0.7925,0.18095l0.79058,0.18897l0.78845,0.19704l0.78653,0.20513l0.78429,0.2131l0.78173,0.22109l0.7796,0.22903l0.77853,0.23693l0.77427,0.24481l0.7732,0.25262l0.77,0.26041l0.76787,0.26813l0.76467,0.27583l0.76253,0.28341l0.75934,0.29103l0.7572,0.29856l0.75294,0.30595l0.7508,0.31338l0.42553,0.18136l0.74974,0.32648l0.74334,0.3321l0.73907,0.33935l0.73587,0.3465l0.73267,0.35375l0.72841,0.36111l0.72521,0.36815l0.72094,0.37551l0.71774,0.38255l0.71348,0.3898l0.70921,0.39694l0.70601,0.40409l0.70068,0.41113l0.69748,0.41827l0.69215,0.42531l0.68895,0.43235l0.68362,0.43928l0.67935,0.44622l0.67508,0.45304l0.66975,0.45997l0.66548,0.46669l0.66122,0.47362l0.65589,0.48013l0.65055,0.48685l0.64629,0.49346l0.64096,0.49986l0.63562,0.50637l0.63136,0.51287l0.62603,0.51906l0.62069,0.52546l0.61536,0.53153l0.61003,0.53772l0.6047,0.54369l0.60043,0.54977l0.59403,0.55553l0.5887,0.5615l0.58443,0.56716l0.57803,0.57281l0.32528,0.32794l0.5727,0.58433l0.56417,0.58699l0.55777,0.59222l0.55244,0.59766l0.54604,0.60299l0.54071,0.60821l0.53324,0.61344l0.52791,0.61867l0.52258,0.62379l0.51511,0.62901l0.50871,0.63402l0.50231,0.63914l0.49591,0.64405l0.48952,0.64906l0.48312,0.65397l0.47672,0.65877l0.46925,0.66357l0.46285,0.66826l0.45539,0.67295l0.44899,0.67754l0.44259,0.68202l0.43512,0.6866l0.42766,0.69087l0.42126,0.69524l0.4138,0.69951l0.4074,0.70377l0.39886,0.70782l0.39353,0.71188l0.385,0.71572l0.3786,0.71966l0.37114,0.72361l0.36367,0.72723l0.35727,0.73075l0.34874,0.73459l0.34234,0.7379l0.33488,0.74131l0.32741,0.74462l0.32101,0.74792l0.30821,0.73865l0.30608,0.75411l0.29862,0.75667l0.29115,0.75966l0.28368,0.76232l0.27515,0.76509l0.26875,0.76765l0.25916,0.77032l0.25276,0.77288l0.24529,0.77523l0.23676,0.77757l0.22929,0.78003l0.22076,0.78216l0.2133,0.7844l0.20476,0.78653l0.1973,0.78845l0.18877,0.79048l0.1813,0.79229l0.1717,0.79421l0.1653,0.79581l0.15571,0.79762l0.14824,0.79912l0.14078,0.8005l0.13224,0.8021l0.12371,0.80327l0.11518,0.80455l0.10771,0.80583l0.10025,0.80679l0.09065,0.80786l0.08319,0.80893l0.07572,0.80957l0.06719,0.81074l0.05866,0.81117l0.05119,0.8117l0.04266,0.81202l0.03519,0.81309l0.02773,0.81341l0.0192,0.81351l0.01173,0.81394l0.0032,0.79464v0.0192l-0.0032,0.80071l-0.01173,0.81437l-0.0192,0.81341l-0.02773,0.81351l-0.03519,0.81298l-0.04266,0.81213l-0.05119,0.81213l-0.05972,0.81117l-0.06719,0.81074l-0.07465,0.80978l-0.08425,0.80893l-0.09065,0.80797l-0.09918,0.80658l-0.10771,0.80573l-0.11625,0.80477l-0.12371,0.80349l-0.13224,0.80199l-0.14078,0.80071l-0.14824,0.7989l-0.15677,0.79752l-0.16424,0.79613l-0.17277,0.79378l-0.1813,0.7925l-0.18877,0.79058l-0.1973,0.78845l-0.20476,0.78653l-0.2133,0.78418l-0.22076,0.78173l-0.22929,0.78067l-0.23676,0.77747l-0.24529,0.77533l-0.25169,0.77213l-0.26129,0.77l-0.26769,0.76787l-0.27622,0.76467l-0.28368,0.76253l-0.29115,0.75934l-0.29755,0.7572l-0.30608,0.75294l-0.31355,0.75187l-0.1813,0.42446l-0.32634,0.74974l-0.33274,0.74334l-0.33914,0.73907l-0.34661,0.73587l-0.35301,0.73267l-0.36154,0.72841l-0.36794,0.72521l-0.3754,0.72094l-0.38287,0.71774l-0.39033,0.71348l-0.39673,0.71028l-0.4042,0.70494l-0.4106,0.70175l-0.41806,0.69641l-0.42553,0.69321l-0.43193,0.68788l-0.43939,0.68362l-0.44686,0.67935l-0.45326,0.67508l-0.11305,0.16637c1.48668,0.16779 2.973,0.34092 4.45896,0.51938l0.38287,-0.5951l0.45432,-0.72308l0.44579,-0.72734l0.43939,-0.73161l0.43086,-0.73694l0.42446,-0.74121l0.41593,-0.7444l0.40953,-0.74867l0.401,-0.75294l0.39353,-0.7572l0.38713,-0.7604l0.37753,-0.76467l0.37114,-0.76787l0.36367,-0.77213l0.35514,-0.77427l0.34767,-0.7796l0.33914,-0.77747l0.19303,-0.45326l0.32848,-0.78706l0.31994,-0.79026l0.31355,-0.79346l0.30501,-0.79666l0.29648,-0.79986l0.28902,-0.80199l0.28155,-0.80626l0.27302,-0.80839l0.26555,-0.81159l0.25596,-0.81373l0.24956,-0.81586l0.23996,-0.81906l0.23143,-0.82119l0.22396,-0.82439l0.21543,-0.82578l0.2069,-0.82802l0.1973,-0.83036l0.18983,-0.83218l0.18237,-0.83452l0.1717,-0.8358l0.16424,-0.83762l0.15677,-0.839l0.14611,-0.84081l0.13864,-0.8422l0.13011,-0.84359l0.12158,-0.84497l0.11305,-0.84583l0.10345,-0.84679l0.09598,-0.84764l0.08745,-0.84913l0.07892,-0.84945l0.07039,-0.84999l0.06079,-0.85041l0.05439,-0.85137l0.04479,-0.8518l0.03733,-0.85169zM335.93267,280.11476c9.34878,-12.60582 14.87956,-28.21507 14.87956,-45.11551c0,-41.86978 -33.94293,-75.81179 -75.81207,-75.81179c-41.86967,0 -75.81177,33.94202 -75.81177,75.81179c0,16.90044 5.53016,32.50969 14.87958,45.11551c8.94132,-0.91504 17.88267,-1.62852 26.82406,-2.14043l-3.56898,-5.37187l-20.91169,-13.8952l6.8722,-6.85951l18.61428,4.5687l22.39752,-22.39133l-47.7269,-33.47837l7.29111,-7.29122l62.30945,18.89561l23.09734,-23.09777l14.37938,-2.78192l-2.77499,14.38002l-67.36159,67.36937l2.27822,9.28693c14.14383,-0.45645 28.28759,-0.40882 42.43128,0.14291l-19.6157,-27.9653l20.69498,-20.70309l15.01074,49.51304c7.208,0.47565 14.416,1.08212 21.624,1.81942z"
                    data-paper-data="{&quot;isPathIcon&quot;:true}"></path>
            </g>
            <g>
                <path
                    d="M202.58898,314.58964l0.69654,5.07387l-5.211,0.71536l-2.8238,-20.56973l3.10831,-0.42671l-0.78439,-5.71381l-16.27294,2.23394l0.78439,5.71381l2.74263,-0.37651l2.8238,20.56973l-2.74263,0.37651l0.78439,5.71381l25.32362,-3.47641l-1.48093,-10.78768z"
                    data-paper-data="{&quot;glyphName&quot;:&quot;L&quot;,&quot;glyphIndex&quot;:0,&quot;firstGlyphOfWord&quot;:true,&quot;word&quot;:1}"
                    fill-rule="nonzero"></path>
                <path
                    d="M226.23317,296.27374l-0.55467,-5.74067l-15.98202,1.54419l0.55467,5.74067l2.75552,-0.26624l1.9968,20.66641l-2.75552,0.26624l0.55467,5.74067l15.98202,-1.54419l-0.55467,-5.74067l-2.75552,0.26624l-1.9968,-20.66641z"
                    data-paper-data="{&quot;glyphName&quot;:&quot;I&quot;,&quot;glyphIndex&quot;:1,&quot;word&quot;:1}"
                    fill-rule="nonzero"></path>
                <path
                    d="M254.98784,288.82722l-25.89054,1.43429l0.31901,5.75857l2.76411,-0.15313l1.14845,20.73086l-2.76411,0.15313l0.31901,5.75857l17.45999,-0.96725l-0.31901,-5.75857l-4.19224,0.23224l-0.40068,-7.23277l8.52269,-0.47214l-0.33433,-6.03498l-8.52269,0.47214l-0.41855,-7.55525l5.62037,-0.31136l0.19651,3.54728l7.00242,-0.38792z"
                    data-paper-data="{&quot;glyphName&quot;:&quot;F&quot;,&quot;glyphIndex&quot;:2,&quot;word&quot;:1}"
                    fill-rule="nonzero"></path>
                <path
                    d="M277.09895,311.62611l0.02291,3.59879l-5.21363,0.03319l-0.0511,-8.02806l8.21261,-0.05228l-0.03848,-6.04412l-8.21261,0.05228l-0.04376,-6.8746l5.02907,-0.03201l0.01938,3.04513l7.05916,-0.04494l-0.05551,-8.72014l-25.37606,0.16154l0.03671,5.76729l2.7683,-0.01762l0.13217,20.76223l-2.7683,0.01762l0.03671,5.76729l25.51447,-0.16242l-0.05903,-9.2738z"
                    data-paper-data="{&quot;glyphName&quot;:&quot;E&quot;,&quot;glyphIndex&quot;:3,&quot;word&quot;:1}"
                    fill-rule="nonzero"></path>
                <path
                    d="M317.09113,316.66476l-5.61812,-9.47803c3.38079,-1.07612 6.34805,-4.02112 6.53711,-7.75361c0.29408,-5.8061 -5.10657,-9.54452 -11.92643,-9.88995l-17.78694,-0.90091l-0.29175,5.76002l2.76481,0.14004l-1.05029,20.73607l-2.76481,-0.14004l-0.29175,5.76002l15.62117,0.79122l0.29175,-5.76002l-2.35009,-0.11903l0.37344,-7.37282l1.70497,0.08636l6.20076,13.4806l11.8426,0.59983l0.29175,-5.76002zM302.2337,303.53106l-1.3824,-0.07002l0.43879,-8.66307l1.47456,0.07469c2.48833,0.12603 4.25451,1.74004 4.11447,4.50485c-0.14471,2.85697 -2.15709,4.27959 -4.64542,4.15355z"
                    data-paper-data="{&quot;glyphName&quot;:&quot;R&quot;,&quot;glyphIndex&quot;:4,&quot;word&quot;:1}"
                    fill-rule="nonzero"></path>
                <path
                    d="M340.66726,313.77322l-0.53431,5.09351l-5.23117,-0.54875l2.16611,-20.64935l3.12035,0.32732l0.6017,-5.73593l-16.33593,-1.71364l-0.6017,5.73593l2.75325,0.28881l-2.16611,20.64935l-2.75325,-0.28881l-0.6017,5.73593l25.42164,2.66672l1.13601,-10.82944z"
                    data-paper-data="{&quot;glyphName&quot;:&quot;L&quot;,&quot;glyphIndex&quot;:5,&quot;word&quot;:1}"
                    fill-rule="nonzero"></path>
                <path
                    d="M367.99898,301.62837l0.83119,-5.70719l-15.88882,-2.31404l-0.83119,5.70719l2.73945,0.39897l-2.9923,20.54589l-2.73945,-0.39897l-0.83119,5.70719l15.88882,2.31404l0.83119,-5.70719l-2.73945,-0.39897l2.9923,-20.54589z"
                    data-paper-data="{&quot;glyphName&quot;:&quot;I&quot;,&quot;glyphIndex&quot;:6,&quot;lastGlyphOfWord&quot;:true,&quot;word&quot;:1}"
                    fill-rule="nonzero"></path>
                <path
                    d="M163.49996,282.65086c-14.26875,2.64345 -28.42485,5.79029 -42.46829,9.4405l0.97903,3.76682c12.44585,-3.235 24.98018,-6.0722 37.60299,-8.5116l-4.20621,6.19733c-0.07174,0.10594 -0.13249,0.21756 -0.18226,0.33488c-0.0497,0.11802 -0.08749,0.2396 -0.11337,0.36474c-0.02581,0.12513 -0.03918,0.25133 -0.0401,0.3786c-0.00092,0.12798 0.01059,0.25489 0.03455,0.38073c0.02403,0.12513 0.06008,0.24707 0.10814,0.3658c0.04799,0.11802 0.10711,0.23036 0.17736,0.33701c0.07025,0.10665 0.1502,0.20548 0.23985,0.29648c0.08966,0.09101 0.18735,0.17241 0.29307,0.24422c0.10686,0.07252 0.21984,0.13402 0.33893,0.1845c0.11902,0.04977 0.24184,0.08745 0.36847,0.11305c0.12656,0.0256 0.25439,0.03839 0.38351,0.03839c0.12912,0 0.25702,-0.01244 0.38372,-0.03733c78.40231,-15.68227 156.80295,-15.68227 235.20191,0c0.12513,0.02488 0.25169,0.03733 0.37967,0.03733c0.12727,0 0.25382,-0.01209 0.37967,-0.03626c0.12513,-0.02488 0.24671,-0.06186 0.36474,-0.11091c0.11802,-0.04906 0.23036,-0.10878 0.33701,-0.17917c0.10594,-0.0711 0.20405,-0.1518 0.29435,-0.24209c0.09101,-0.0903 0.17206,-0.18841 0.24316,-0.29435c0.0711,-0.10594 0.13118,-0.21792 0.18024,-0.33594c0.04906,-0.11802 0.08603,-0.23996 0.11091,-0.3658c0.02488,-0.12656 0.03733,-0.25418 0.03733,-0.38287c0,-0.1294 -0.0128,-0.25738 -0.03839,-0.38393c-0.0256,-0.12656 -0.06328,-0.2492 -0.11305,-0.36794c-0.05048,-0.11945 -0.11198,-0.23249 -0.1845,-0.33914l-4.20621,-6.19733c12.6236,2.4394 25.15796,5.2766 37.6031,8.5116l0.97903,-3.76682c-14.04415,-3.65021 -28.20028,-6.79705 -42.46839,-9.4405c-0.12442,-0.02346 -0.24991,-0.03448 -0.37647,-0.03306c-0.12727,0.00142 -0.25276,0.01529 -0.37647,0.04159c-0.12442,0.0256 -0.24494,0.06328 -0.36154,0.11305c-0.1166,0.04977 -0.22752,0.1102 -0.33274,0.1813c-0.05261,0.03555 -0.10345,0.07394 -0.15251,0.11518c-0.04906,0.04053 -0.09598,0.08354 -0.14078,0.12904c-0.04479,0.0455 -0.0871,0.09278 -0.12691,0.14184c-0.03982,0.04977 -0.07714,0.10132 -0.11198,0.15464c-0.03555,0.05332 -0.0679,0.10807 -0.09705,0.16424c-0.02986,0.05688 -0.05688,0.11482 -0.08105,0.17384c-0.02417,0.05901 -0.04515,0.11909 -0.06292,0.18024c-0.01777,0.06114 -0.03271,0.123 -0.04479,0.18557c-0.01209,0.06257 -0.02097,0.12549 -0.02666,0.18877c-0.00569,0.06328 -0.00853,0.12691 -0.00853,0.1909c0.00071,0.06399 0.00427,0.12762 0.01066,0.1909c0.00711,0.06328 0.01706,0.1262 0.02986,0.18877c0.0128,0.06257 0.0288,0.12407 0.04799,0.1845c0.01849,0.06114 0.04017,0.12087 0.06506,0.17917c0.02488,0.05901 0.05261,0.1166 0.08319,0.17277c0.03057,0.05546 0.06363,0.10949 0.09918,0.16211l4.18168,6.16107c-75.8131,-14.56886 -151.62439,-14.56886 -227.43387,0l4.18136,-6.16107c0.07117,-0.10452 0.13153,-0.21507 0.18109,-0.33168c0.04956,-0.1166 0.08734,-0.23711 0.11337,-0.36154c0.02602,-0.12442 0.03978,-0.24991 0.04127,-0.37647c0.00142,-0.12656 -0.00939,-0.2524 -0.03242,-0.37753c-0.02332,-0.12513 -0.05866,-0.24707 -0.10601,-0.3658c-0.04735,-0.11874 -0.1058,-0.23178 -0.17533,-0.33914c-0.06961,-0.10736 -0.14899,-0.20654 -0.23815,-0.29755c-0.08916,-0.09172 -0.18639,-0.17384 -0.29168,-0.24636c-0.1053,-0.07252 -0.21664,-0.13402 -0.33402,-0.1845c-0.11738,-0.05048 -0.23857,-0.08887 -0.36356,-0.11518c-0.12499,-0.02631 -0.25137,-0.04053 -0.37913,-0.04266c-0.12776,-0.00142 -0.25446,0.0096 -0.38009,0.03306z"
                    fill-rule="evenodd"></path>
                <path
                    d="M387.70399,330.94865c10.66127,2.17136 21.25179,4.64844 31.77158,7.43125l0.99503,-3.76255c-11.22153,-2.96909 -22.52517,-5.59228 -33.91094,-7.86957c-0.12513,-0.02488 -0.25169,-0.03733 -0.37967,-0.03733c-0.12798,-0.00071 -0.25453,0.01138 -0.37967,0.03626c-0.12513,0.02488 -0.24671,0.06186 -0.36474,0.11091c-0.11802,0.04835 -0.23036,0.10807 -0.33701,0.17917c-0.10594,0.0711 -0.20441,0.1518 -0.29542,0.24209c-0.0903,0.0903 -0.17099,0.18841 -0.24209,0.29435c-0.0711,0.10594 -0.13118,0.21792 -0.18024,0.33594c-0.04906,0.11802 -0.08603,0.2396 -0.11091,0.36474l-1.32031,6.60046c-71.96467,-14.14511 -143.931,-14.14511 -215.89901,0l-1.32009,-6.60046c-0.0251,-0.12513 -0.06214,-0.24671 -0.11113,-0.36474c-0.04906,-0.11802 -0.10914,-0.23 -0.18024,-0.33594c-0.0711,-0.10594 -0.15187,-0.20405 -0.2423,-0.29435c-0.09044,-0.0903 -0.1888,-0.17099 -0.2951,-0.24209c-0.10636,-0.0711 -0.21859,-0.13082 -0.33669,-0.17917c-0.1181,-0.04906 -0.23982,-0.08603 -0.36516,-0.11091c-0.12535,-0.02488 -0.2519,-0.03697 -0.37967,-0.03626c-0.12776,0 -0.25428,0.01244 -0.37956,0.03733c-11.38406,2.2773 -22.68781,4.90049 -33.91126,7.86957l0.99535,3.76255c10.51843,-2.78281 21.10903,-5.25989 31.77179,-7.43125l1.31881,6.59406c0.02503,0.12513 0.06207,0.24671 0.11113,0.36474c0.04899,0.11802 0.10903,0.23 0.18013,0.33594c0.0711,0.10665 0.1519,0.20512 0.24241,0.29542c0.09044,0.0903 0.1888,0.17064 0.2951,0.24103c0.10629,0.0711 0.21849,0.13082 0.33658,0.17917c0.1181,0.04906 0.23982,0.08603 0.36516,0.11091c0.12535,0.02488 0.25194,0.03733 0.37977,0.03733c0.12776,-0.00071 0.25428,-0.01351 0.37956,-0.03839c72.7282,-14.54753 145.45813,-14.54753 218.18981,0c0.12513,0.02488 0.25169,0.03768 0.37967,0.03839c0.12798,0 0.25453,-0.01244 0.37967,-0.03733c0.12513,-0.02488 0.24671,-0.06186 0.36474,-0.11091c0.11874,-0.04835 0.23107,-0.10807 0.33701,-0.17917c0.10665,-0.07039 0.20512,-0.15073 0.29542,-0.24103c0.0903,-0.0903 0.17099,-0.18877 0.24209,-0.29542c0.0711,-0.10594 0.13118,-0.21792 0.18024,-0.33594c0.04906,-0.11802 0.08603,-0.2396 0.11091,-0.36474z"
                    fill-rule="evenodd"></path>
            </g>
            <g data-paper-data="{&quot;isContainerElementsWrapper&quot;:true}" fill-rule="evenodd">
                <path
                    d="M224.78484,116.14129c15.98451,-6.76086 32.72295,-10.14129 50.21532,-10.14129c17.49255,0 34.23099,3.38043 50.21543,10.14139c15.43342,6.52801 29.10004,15.7418 40.99985,27.64137c11.90052,11.89927 21.11422,25.56618 27.64109,41.00074c6.76292,15.98515 10.14438,32.72377 10.14438,50.21586c0,15.76901 -2.74797,30.92586 -8.24391,45.47054c-0.73694,-0.14717 -1.47388,-0.29328 -2.21188,-0.43832c5.48741,-14.39822 8.23111,-29.40896 8.23111,-45.03222c0,-17.19202 -3.32209,-33.64187 -9.96734,-49.34944c-6.41489,-15.16869 -15.47039,-28.60015 -27.16544,-40.2945c-11.69576,-11.69517 -25.12704,-20.75042 -40.29384,-27.16574c-15.70715,-6.64376 -32.15697,-9.96564 -49.34944,-9.96564c-17.1918,0 -33.64144,3.32188 -49.34891,9.96553c-15.16815,6.41567 -28.59977,15.47102 -40.29484,27.16605c-11.69509,11.69514 -20.75043,25.12675 -27.16604,40.29483c-6.64369,15.70758 -9.96553,32.15722 -9.96553,49.34891c0,15.62407 2.74342,30.63471 8.23026,45.03222c-0.73737,0.14433 -1.47484,0.29044 -2.21242,0.43832c-5.49459,-14.54326 -8.24188,-29.70011 -8.24188,-45.47054c0,-17.4923 3.38043,-34.23074 10.14129,-50.21532c6.52822,-15.43442 15.74214,-29.10141 27.64175,-41.00099c11.89965,-11.89955 25.56665,-21.11347 41.001,-27.64176zM196.87819,337.68561c8.55298,6.53007 17.85526,11.92114 27.90675,16.17214c15.98536,6.7615 32.72377,10.14225 50.21522,10.14225c17.49251,0 34.23099,-3.38075 50.21543,-10.14225c10.05266,-4.25171 19.35488,-9.64242 27.90664,-16.17214c-1.03875,-0.15002 -2.07857,-0.29719 -3.11946,-0.44152c-7.9133,5.8237 -16.46435,10.67904 -25.65317,14.56602c-15.70715,6.64312 -32.157,9.96521 -49.34944,9.96521c-17.1907,0 -33.6403,-3.32174 -49.34881,-9.96521c-9.18839,-3.88626 -17.73971,-8.7416 -25.65397,-14.56602c-1.0388,0.14433 -2.07854,0.29151 -3.11919,0.44152z"
                    data-paper-data="{&quot;isAdditionalOutlinePath&quot;:true}"></path>
                <path
                    d="M162.61841,187.5233c6.17202,-14.59232 14.88456,-27.515 26.13764,-38.76803c11.25305,-11.25302 24.17573,-19.96557 38.76805,-26.13766c15.10893,-6.3905 30.93428,-9.58576 47.47606,-9.58576c16.54192,0 32.36749,3.19525 47.4767,9.58576c14.5909,6.1718 27.51311,14.88434 38.76663,26.13761c11.25352,11.25242 19.96597,24.17508 26.13735,38.76797c6.39178,15.10886 9.58768,30.93425 9.58768,47.47617c0,15.31671 -2.73979,30.02041 -8.22045,44.11078c-0.51298,-0.09598 -1.02596,-0.19197 -1.53893,-0.28688c-0.18663,-0.03413 -0.37434,-0.05972 -0.5631,-0.07572c-0.18877,-0.016 -0.3786,-0.02346 -0.56844,-0.02133c-0.18983,0.00213 -0.3786,0.01386 -0.56737,0.03413c-0.18877,0.02026 -0.37647,0.05012 -0.56204,0.08958c-0.10452,0.0224 -0.20903,0.04693 -0.31248,0.07465c5.62676,-14.01002 8.44014,-28.65176 8.44014,-43.92521c0,-16.01569 -3.0928,-31.3357 -9.2784,-45.95984c-5.97515,-14.12691 -14.41031,-26.63764 -25.30549,-37.5322c-10.89589,-10.89545 -23.40644,-19.33054 -37.53165,-25.30526c-14.62432,-6.1856 -29.94437,-9.2784 -45.96016,-9.2784c-16.01565,0 -31.33563,3.0928 -45.95995,9.2784c-14.1262,5.97493 -26.63692,14.41 -37.53217,25.30521c-10.89519,10.89523 -19.33025,23.40595 -25.30518,37.53215c-6.1856,14.62439 -9.2784,29.94437 -9.2784,45.95995c0,15.27487 2.81317,29.91661 8.4395,43.92521c-0.00555,-0.00107 -0.01109,-0.0032 -0.01664,-0.00427c-0.09236,-0.02453 -0.18525,-0.04693 -0.27867,-0.06719c-0.09342,-0.0192 -0.18727,-0.03626 -0.28166,-0.05226c-0.09428,-0.01493 -0.18887,-0.02773 -0.2839,-0.03839c-0.09492,-0.01066 -0.19005,-0.0192 -0.2855,-0.0256c-0.09534,-0.00533 -0.19079,-0.0096 -0.28624,-0.01066c-0.09556,-0.00107 -0.19111,0 -0.28656,0.0032c-0.09545,0.0032 -0.19079,0.0096 -0.28603,0.01813c-0.09524,0.00747 -0.19015,0.01813 -0.28475,0.03093c-0.0947,0.0128 -0.18898,0.02773 -0.28294,0.04479c-0.51248,0.09527 -1.02539,0.1909 -1.53872,0.28688c-5.4798,-14.08894 -8.2197,-28.79254 -8.2197,-44.11078c0,-16.54167 3.19529,-32.3671 9.58576,-47.47606zM207.03249,336.31625c6.41951,4.31428 13.25005,8.00288 20.49161,11.06582c15.10978,6.39036 30.93513,9.58554 47.47606,9.58554c16.54192,0 32.36749,-3.19518 47.4767,-9.58554c7.24142,-3.06294 14.07117,-6.7519 20.49033,-11.06582c-2.02063,-0.25382 -4.04161,-0.49627 -6.06295,-0.72734c-5.06366,3.11733 -10.37794,5.85392 -15.94391,8.20765c-14.62467,6.1856 -29.94437,9.2784 -45.96016,9.2784c-16.01451,0 -31.33453,-3.0928 -45.96006,-9.2784c-5.56562,-2.35408 -10.88061,-5.08996 -15.94498,-8.20765c-2.02084,0.23107 -4.04172,0.47352 -6.06263,0.72734z"
                    data-paper-data="{&quot;isBaseLogoContainer&quot;:true}"></path>
            </g>
        </g>
    </g>
</svg>